<svg width="25" height="24" viewBox="0 0 25 24" fill="none" xmlns="http://www.w3.org/2000/svg">
    <mask id="mask0_1699_795" style="mask-type:alpha" maskUnits="userSpaceOnUse" x="0" y="0" width="25" height="24">
        <rect x="0.5" width="24" height="24" fill="#D9D9D9"/>
    </mask>
    <g mask="url(#mask0_1699_795)">
        <path d="M1.00006 17.7885V16.5693C1.00006 15.9039 1.34749 15.3575 2.04236 14.9299C2.73723 14.5023 3.64299 14.2885 4.75964 14.2885C4.94425 14.2885 5.13015 14.2943 5.31734 14.3059C5.50452 14.3174 5.69298 14.3398 5.88271 14.3732C5.68784 14.6847 5.54329 15.0081 5.44906 15.3433C5.35484 15.6786 5.30774 16.0225 5.30774 16.3751V17.7885H1.00006ZM7.00004 17.7885V16.4135C7.00004 15.9454 7.13145 15.5174 7.39429 15.1297C7.6571 14.742 8.03594 14.4039 8.53081 14.1155C9.02568 13.827 9.61029 13.6107 10.2846 13.4664C10.959 13.3222 11.6962 13.2501 12.4962 13.2501C13.3115 13.2501 14.0564 13.3222 14.7308 13.4664C15.4051 13.6107 15.9897 13.827 16.4846 14.1155C16.9795 14.4039 17.3558 14.742 17.6134 15.1297C17.8711 15.5174 18 15.9454 18 16.4135V17.7885H7.00004ZM19.6923 17.7885V16.3779C19.6923 16.0018 19.6477 15.6473 19.5586 15.3146C19.4695 14.9818 19.3359 14.668 19.1577 14.3732C19.3538 14.3398 19.5413 14.3174 19.7202 14.3059C19.899 14.2943 20.0756 14.2885 20.25 14.2885C21.3667 14.2885 22.2708 14.4998 22.9625 14.9222C23.6542 15.3446 24 15.8937 24 16.5693V17.7885H19.6923ZM8.57694 16.2885H16.4385V16.1828C16.3359 15.7789 15.9103 15.4392 15.1616 15.1635C14.4128 14.8879 13.5257 14.7501 12.5 14.7501C11.4744 14.7501 10.5872 14.8879 9.83846 15.1635C9.08974 15.4392 8.66924 15.7789 8.57694 16.1828V16.2885ZM4.75709 13.3174C4.28572 13.3174 3.88305 13.1498 3.54909 12.8146C3.21512 12.4795 3.04814 12.0766 3.04814 11.6059C3.04814 11.129 3.21572 10.7261 3.55089 10.3972C3.88605 10.0684 4.28897 9.90396 4.75964 9.90396C5.23655 9.90396 5.64104 10.0684 5.97309 10.3972C6.30514 10.7261 6.47116 11.1299 6.47116 11.6087C6.47116 12.0735 6.30689 12.4745 5.97836 12.8116C5.64983 13.1488 5.24274 13.3174 4.75709 13.3174ZM20.25 13.3174C19.7833 13.3174 19.3814 13.1488 19.0442 12.8116C18.7071 12.4745 18.5385 12.0735 18.5385 11.6087C18.5385 11.1299 18.7071 10.7261 19.0442 10.3972C19.3814 10.0684 19.784 9.90396 20.2519 9.90396C20.7339 9.90396 21.1394 10.0684 21.4682 10.3972C21.7971 10.7261 21.9615 11.129 21.9615 11.6059C21.9615 12.0766 21.7975 12.4795 21.4695 12.8146C21.1414 13.1498 20.7349 13.3174 20.25 13.3174ZM12.5034 12.5001C11.7832 12.5001 11.1699 12.2477 10.6635 11.7429C10.1571 11.2381 9.90389 10.6251 9.90389 9.90396C9.90389 9.16839 10.1563 8.55182 10.6611 8.05424C11.1659 7.55665 11.7789 7.30786 12.5 7.30786C13.2356 7.30786 13.8522 7.55633 14.3498 8.05326C14.8473 8.55019 15.0961 9.16597 15.0961 9.90059C15.0961 10.6208 14.8477 11.2341 14.3507 11.7405C13.8538 12.2469 13.238 12.5001 12.5034 12.5001ZM12.5048 11.0001C12.8106 11.0001 13.0689 10.8931 13.2798 10.679C13.4907 10.4649 13.5962 10.2049 13.5962 9.89916C13.5962 9.59339 13.4911 9.33506 13.281 9.12416C13.0709 8.91326 12.8106 8.80781 12.5 8.80781C12.1974 8.80781 11.9391 8.91286 11.725 9.12296C11.5109 9.33306 11.4039 9.59339 11.4039 9.90396C11.4039 10.2065 11.5109 10.4649 11.725 10.679C11.9391 10.8931 12.199 11.0001 12.5048 11.0001Z"
              fill="#000"/>
    </g>
</svg>
