<svg xmlns="http://www.w3.org/2000/svg" width="17" height="16" viewBox="0 0 17 16" fill="none">
    <mask id="mask0_1786_468" style="mask-type:alpha" maskUnits="userSpaceOnUse" x="0" y="0" width="17" height="16">
        <rect x="0.25" width="16" height="16" fill="#D9D9D9"/>
    </mask>
    <g mask="url(#mask0_1786_468)">
        <path d="M3.686 12.6666H4.51035L10.6835 6.49349L9.85912 5.66912L3.686 11.8422V12.6666ZM12.8219 5.77042L10.5719 3.54097L11.4412 2.67176C11.6369 2.47603 11.8749 2.37817 12.1552 2.37817C12.4356 2.37817 12.6736 2.47603 12.8693 2.67176L13.6809 3.48327C13.8766 3.679 13.9779 3.91361 13.9847 4.18711C13.9915 4.46061 13.8971 4.69522 13.7014 4.89094L12.8219 5.77042ZM12.0988 6.50374L4.93599 13.6666H2.68604V11.4166L9.84885 4.25377L12.0988 6.50374Z" fill="#222B38"/>
    </g>
</svg>
