<svg width="19" height="18" viewBox="0 0 19 18" fill="none" xmlns="http://www.w3.org/2000/svg">
    <mask id="mask0_1567_6921" style="mask-type:luminance" maskUnits="userSpaceOnUse" x="0" y="0" width="19"
          height="18">
        <path d="M18.5 0H0.5V18H18.5V0Z" fill="white"/>
    </mask>
    <g mask="url(#mask0_1567_6921)">
        <path d="M18.14 9.2046C18.14 8.56641 18.0828 7.95279 17.9764 7.36365H9.5V10.845H14.3436C14.135 11.97 13.501 12.9232 12.5478 13.5614V15.8196H15.4564C17.1582 14.2528 18.14 11.9455 18.14 9.2046Z"
              fill="#4285F4"/>
        <path d="M9.50004 18.0001C11.93 18.0001 13.9673 17.1941 15.4563 15.8197L12.5477 13.5615C11.7418 14.1015 10.7109 14.4205 9.50004 14.4205C7.1559 14.4205 5.17185 12.8373 4.46409 10.7101H1.45728V13.0419C2.93823 15.9833 5.98185 18.0001 9.50004 18.0001Z"
              fill="#34A853"/>
        <path d="M4.46405 10.7099C4.28405 10.1699 4.18181 9.59313 4.18181 8.99994C4.18181 8.40675 4.28405 7.82994 4.46405 7.28994V4.95813H1.45724C0.84776 6.17313 0.5 7.5477 0.5 8.99994C0.5 10.4522 0.84776 11.8267 1.45724 13.0417L4.46405 10.7099Z"
              fill="#FBBC04"/>
        <path d="M9.50004 3.57957C10.8213 3.57957 12.0077 4.03362 12.9405 4.92543L15.5218 2.34405C13.9632 0.89181 11.9259 0 9.50004 0C5.98185 0 2.93823 2.01681 1.45728 4.95819L4.46409 7.29C5.17185 5.16276 7.1559 3.57957 9.50004 3.57957Z"
              fill="#E94235"/>
    </g>
</svg>
