<svg width="17" height="16" viewBox="0 0 17 16" fill="none" xmlns="http://www.w3.org/2000/svg">
    <path d="M5.87563 8C5.87563 6.55031 7.05056 5.37479 8.50032 5.37479C9.95007 5.37479 11.1256 6.55031 11.1256 8C11.1256 9.44969 9.95007 10.6252 8.50032 10.6252C7.05056 10.6252 5.87563 9.44969 5.87563 8ZM4.45644 8C4.45644 10.2334 6.26688 12.0437 8.50032 12.0437C10.7338 12.0437 12.5442 10.2334 12.5442 8C12.5442 5.76665 10.7338 3.95628 8.50032 3.95628C6.26688 3.95628 4.45644 5.76665 4.45644 8ZM11.7592 3.79595C11.759 4.31786 12.182 4.74112 12.7039 4.74132C13.2258 4.74153 13.6491 4.31861 13.6493 3.7967C13.6495 3.27479 13.2266 2.85153 12.7047 2.85132C12.183 2.85157 11.7597 3.27429 11.7592 3.79595ZM5.31869 14.4101C4.55088 14.3751 4.13355 14.2472 3.85621 14.1392C3.48853 13.996 3.22619 13.8255 2.95036 13.5501C2.67454 13.2747 2.5038 13.0126 2.36129 12.6449C2.25317 12.3677 2.12528 11.9503 2.09038 11.1825C2.0522 10.3524 2.04457 10.1031 2.04457 8.00006C2.04457 5.89706 2.05283 5.6484 2.09038 4.81762C2.12534 4.04984 2.25418 3.63322 2.36129 3.3552C2.50443 2.98753 2.67491 2.7252 2.95036 2.44938C3.22581 2.17357 3.4879 2.00284 3.85621 1.86033C4.13342 1.75223 4.55088 1.62434 5.31869 1.58943C6.14881 1.55126 6.39817 1.54363 8.50032 1.54363C10.6025 1.54363 10.8521 1.55189 11.6829 1.58943C12.4507 1.6244 12.8673 1.75323 13.1454 1.86033C13.513 2.00284 13.7754 2.17395 14.0512 2.44938C14.327 2.72482 14.4971 2.98753 14.6403 3.3552C14.7484 3.6324 14.8763 4.04984 14.9112 4.81762C14.9494 5.6484 14.957 5.89706 14.957 8.00006C14.957 10.1031 14.9494 10.3517 14.9112 11.1825C14.8762 11.9503 14.7477 12.3676 14.6403 12.6449C14.4971 13.0126 14.3267 13.2749 14.0512 13.5501C13.7758 13.8253 13.513 13.996 13.1454 14.1392C12.8682 14.2473 12.4507 14.3752 11.6829 14.4101C10.8528 14.4482 10.6034 14.4559 8.50032 14.4559C6.39723 14.4559 6.14856 14.4482 5.31869 14.4101ZM5.25348 0.172691C4.41511 0.210869 3.84222 0.343799 3.34192 0.538469C2.82379 0.739502 2.38516 1.00921 1.94686 1.4468C1.50855 1.8844 1.23953 2.3237 1.03849 2.84181C0.843808 3.34241 0.710872 3.91495 0.672693 4.75329C0.633883 5.59296 0.625 5.8614 0.625 8C0.625 10.1386 0.633883 10.407 0.672693 11.2467C0.710872 12.0851 0.843808 12.6576 1.03849 13.1582C1.23953 13.676 1.50861 14.1158 1.94686 14.5532C2.3851 14.9906 2.82379 15.2599 3.34192 15.4615C3.84317 15.6562 4.41511 15.7891 5.25348 15.8273C6.09362 15.8655 6.36163 15.875 8.50032 15.875C10.639 15.875 10.9075 15.8661 11.7471 15.8273C12.5856 15.7891 13.1581 15.6562 13.6587 15.4615C14.1765 15.2599 14.6155 14.9908 15.0538 14.5532C15.4921 14.1156 15.7605 13.676 15.9621 13.1582C16.1568 12.6576 16.2904 12.085 16.3279 11.2467C16.3661 10.4064 16.375 10.1386 16.375 8C16.375 5.8614 16.3661 5.59296 16.3279 4.75329C16.2898 3.91489 16.1568 3.3421 15.9621 2.84181C15.7605 2.32402 15.4914 1.88509 15.0538 1.4468C14.6162 1.00851 14.1765 0.739502 13.6593 0.538469C13.1581 0.343799 12.5855 0.210239 11.7478 0.172691C10.9081 0.134513 10.6396 0.125 8.50095 0.125C6.36226 0.125 6.09362 0.133883 5.25348 0.172691Z"
          fill="#222B38"/>
</svg>
