<svg xmlns="http://www.w3.org/2000/svg" width="17" height="16" viewBox="0 0 17 16" fill="none">
    <mask id="mask0_1786_737" style="mask-type:alpha" maskUnits="userSpaceOnUse" x="0" y="0" width="17" height="16">
        <rect x="0.25" width="16" height="16" fill="#D9D9D9"/>
    </mask>
    <g mask="url(#mask0_1786_737)">
        <path d="M3.78851 13.6666C3.45175 13.6666 3.16671 13.5499 2.93337 13.3166C2.70004 13.0832 2.58337 12.7982 2.58337 12.4614V3.53839C2.58337 3.20163 2.70004 2.91659 2.93337 2.68325C3.16671 2.44992 3.45175 2.33325 3.78851 2.33325H8.25644V3.33324H3.78851C3.73722 3.33324 3.6902 3.3546 3.64746 3.39734C3.60472 3.44008 3.58336 3.4871 3.58336 3.53839V12.4614C3.58336 12.5127 3.60472 12.5597 3.64746 12.6025C3.6902 12.6452 3.73722 12.6666 3.78851 12.6666H8.25644V13.6666H3.78851ZM11.0705 10.846L10.3783 10.123L12.0013 8.49989H6.31412V7.49992H12.0013L10.3783 5.87684L11.0705 5.15379L13.9167 7.9999L11.0705 10.846Z" fill="#222B38"/>
    </g>
</svg>
