<svg xmlns="http://www.w3.org/2000/svg" width="53" height="20" viewBox="0 0 53 20" fill="none">
    <path d="M6.625 0H0V6.66664H6.625V0Z" fill="#1C232E"/>
    <path d="M6.625 6.6665H0V13.3331H6.625V6.6665Z" fill="#222B38"/>
    <path d="M6.625 13.3334H0V20H6.625V13.3334Z" fill="#2B3647"/>
    <path d="M16.5625 0H9.9375V6.66664H16.5625V0Z" fill="#1C232E"/>
    <path d="M16.5625 6.6665H9.9375V13.3331H16.5625V6.6665Z" fill="#222B38"/>
    <path d="M9.9375 13.3334H16.5625V20" fill="#2B3647"/>
    <path d="M23.1875 13.3331H16.5625V6.6665" fill="#2B3647"/>
    <path d="M29.8125 6.66664H23.1875V0" fill="#2B3647"/>
    <path d="M29.8125 6.6665H23.1875V13.3331H29.8125V6.6665Z" fill="#222B38"/>
    <path d="M29.8125 13.3334H23.1875V20H29.8125V13.3334Z" fill="#1C232E"/>
    <path d="M53 0H33.125V6.66664H53V0Z" fill="#1C232E"/>
    <path d="M46.3751 6.6665H39.7501V13.3331H46.3751V6.6665Z" fill="#222B38"/>
    <path d="M46.3751 13.3334H39.7501V20H46.3751V13.3334Z" fill="#2B3647"/>
</svg>
