<svg width="20" height="16" viewBox="0 0 20 16" fill="none" xmlns="http://www.w3.org/2000/svg">
    <path d="M15.9615 8.74995V7.25H19.5769V8.74995H15.9615ZM17.1038 15.4807L14.2115 13.3115L15.1231 12.1154L18.0153 14.2846L17.1038 15.4807ZM15.0846 3.84612L14.1731 2.65L17.0654 0.480774L17.9769 1.6769L15.0846 3.84612ZM3.25002 14.4807V10.5769H2.23077C1.73207 10.5769 1.30611 10.4003 0.952896 10.0471C0.599696 9.69386 0.423096 9.2679 0.423096 8.7692V7.23075C0.423096 6.73205 0.599696 6.30609 0.952896 5.95287C1.30611 5.59967 1.73207 5.42307 2.23077 5.42307H6.09615L10.5769 2.75002V13.2499L6.09615 10.5769H4.74997V14.4807H3.25002ZM9.07692 10.5846V5.41535L6.51152 6.92305H2.23077C2.15385 6.92305 2.08334 6.9551 2.01922 7.0192C1.95512 7.08332 1.92307 7.15383 1.92307 7.23075V8.7692C1.92307 8.84612 1.95512 8.91663 2.01922 8.98075C2.08334 9.04485 2.15385 9.0769 2.23077 9.0769H6.51152L9.07692 10.5846ZM11.9615 11.1192V4.88075C12.3538 5.23588 12.6699 5.68332 12.9096 6.22305C13.1493 6.7628 13.2692 7.35511 13.2692 7.99997C13.2692 8.64484 13.1493 9.23715 12.9096 9.7769C12.6699 10.3166 12.3538 10.7641 11.9615 11.1192Z"
          fill="#3671C2"/>
</svg>
