<svg width="25" height="24" viewBox="0 0 25 24" fill="none" xmlns="http://www.w3.org/2000/svg">
    <mask id="mask0_1699_803" style="mask-type:alpha" maskUnits="userSpaceOnUse" x="0" y="0" width="25" height="24">
        <rect x="0.5" width="24" height="24" fill="#D9D9D9"/>
    </mask>
    <g mask="url(#mask0_1699_803)">
        <path d="M4.8077 21.5C4.30257 21.5 3.875 21.325 3.525 20.975C3.175 20.625 3 20.1974 3 19.6923V9.3077C3 8.80257 3.175 8.375 3.525 8.025C3.875 7.675 4.30257 7.5 4.8077 7.5H10V3.99998C10 3.58461 10.1462 3.23077 10.4385 2.93845C10.7308 2.64615 11.0846 2.5 11.5 2.5H13.5C13.9153 2.5 14.2692 2.64615 14.5615 2.93845C14.8538 3.23077 15 3.58461 15 3.99998V7.5H20.1923C20.6974 7.5 21.125 7.675 21.475 8.025C21.825 8.375 22 8.80257 22 9.3077V19.6923C22 20.1974 21.825 20.625 21.475 20.975C21.125 21.325 20.6974 21.5 20.1923 21.5H4.8077ZM4.8077 20H20.1923C20.282 20 20.3557 19.9711 20.4134 19.9134C20.4711 19.8557 20.5 19.782 20.5 19.6923V9.3077C20.5 9.21795 20.4711 9.14423 20.4134 9.08653C20.3557 9.02883 20.282 8.99998 20.1923 8.99998H15V9.38463C15 9.79359 14.8522 10.1458 14.5567 10.4413C14.2612 10.7368 13.9089 10.8846 13.5 10.8846H11.5C11.091 10.8846 10.7388 10.7368 10.4433 10.4413C10.1478 10.1458 10 9.79359 10 9.38463V8.99998H4.8077C4.71795 8.99998 4.64423 9.02883 4.58653 9.08653C4.52883 9.14423 4.49998 9.21795 4.49998 9.3077V19.6923C4.49998 19.782 4.52883 19.8557 4.58653 19.9134C4.64423 19.9711 4.71795 20 4.8077 20ZM6.65383 17.7115H12.3461V17.4154C12.3461 17.1577 12.275 16.9208 12.1327 16.7048C11.9904 16.4888 11.7936 16.3205 11.5423 16.2C11.2154 16.0564 10.8843 15.9487 10.549 15.8769C10.2138 15.8051 9.86408 15.7692 9.49998 15.7692C9.13588 15.7692 8.7862 15.8051 8.45095 15.8769C8.11568 15.9487 7.78459 16.0564 7.45768 16.2C7.20639 16.3205 7.0096 16.4888 6.8673 16.7048C6.72498 16.9208 6.65383 17.1577 6.65383 17.4154V17.7115ZM14.5 16.1923H18.5V15H14.5V16.1923ZM9.49998 15C9.87176 15 10.1891 14.8686 10.4519 14.6058C10.7147 14.3429 10.8461 14.0256 10.8461 13.6538C10.8461 13.282 10.7147 12.9647 10.4519 12.7019C10.1891 12.4391 9.87176 12.3077 9.49998 12.3077C9.12819 12.3077 8.81088 12.4391 8.54805 12.7019C8.28523 12.9647 8.15383 13.282 8.15383 13.6538C8.15383 14.0256 8.28523 14.3429 8.54805 14.6058C8.81088 14.8686 9.12819 15 9.49998 15ZM14.5 13.5H18.5V12.3077H14.5V13.5ZM11.5 9.38463H13.5V3.99998H11.5V9.38463Z"
              fill="#000"/>
    </g>
</svg>
