<svg width="21" height="20" viewBox="0 0 21 20" fill="none" xmlns="http://www.w3.org/2000/svg">
    <mask id="mask0_1557_4119" style="mask-type:alpha" maskUnits="userSpaceOnUse" x="0" y="0" width="21" height="20">
        <rect x="0.5" width="20" height="20" fill="#D9D9D9"/>
    </mask>
    <g mask="url(#mask0_1557_4119)">
        <path d="M8.88627 16.4359C8.56683 15.9455 8.28264 15.4124 8.03371 14.8365C7.78476 14.2607 7.58444 13.6688 7.43273 13.0609H4.60577C5.0513 13.9316 5.63624 14.6573 6.3606 15.238C7.08498 15.8187 7.92687 16.218 8.88627 16.4359ZM4.08175 11.8109H7.17952C7.12717 11.5011 7.08925 11.1974 7.06575 10.8999C7.04225 10.6023 7.0305 10.3024 7.0305 10C7.0305 9.69766 7.04225 9.39771 7.06575 9.10015C7.08925 8.80261 7.12717 8.49892 7.17952 8.18909H4.08175C4.00162 8.47221 3.94019 8.76655 3.89746 9.07211C3.85472 9.37767 3.83335 9.68696 3.83335 10C3.83335 10.313 3.85472 10.6223 3.89746 10.9279C3.94019 11.2335 4.00162 11.5278 4.08175 11.8109ZM4.60577 6.93913H7.43273C7.57376 6.32588 7.77141 5.72732 8.02569 5.14344C8.27996 4.55957 8.56683 4.03312 8.88627 3.56409C7.95358 3.77135 7.11703 4.16932 6.37662 4.758C5.63623 5.34669 5.04595 6.07373 4.60577 6.93913ZM8.71635 6.93913H12.2837C12.101 6.25857 11.8643 5.63144 11.5737 5.05771C11.2832 4.48399 10.9252 3.91507 10.5 3.35096C10.0748 3.8937 9.71956 4.45193 9.43431 5.02565C9.14905 5.59937 8.90973 6.2372 8.71635 6.93913ZM13.5673 6.93913H16.3943C15.9541 6.07373 15.3638 5.34535 14.6234 4.75401C13.883 4.16266 13.0465 3.76602 12.1138 3.56409C12.4065 4.02777 12.68 4.55155 12.9343 5.13542C13.1886 5.7193 13.3996 6.32053 13.5673 6.93913ZM10.5 17.9167C9.41455 17.9167 8.39025 17.7086 7.42712 17.2924C6.46399 16.8763 5.62397 16.3098 4.90708 15.5929C4.19021 14.8761 3.62371 14.036 3.20758 13.0729C2.79144 12.1098 2.58337 11.0855 2.58337 10C2.58337 8.90599 2.79144 7.87955 3.20758 6.92069C3.62371 5.96183 4.19021 5.12396 4.90708 4.40707C5.62397 3.69019 6.46399 3.12369 7.42712 2.70757C8.39025 2.29143 9.41455 2.08336 10.5 2.08336C11.594 2.08336 12.6205 2.29143 13.5793 2.70757C14.5382 3.12369 15.3761 3.69019 16.093 4.40707C16.8098 5.12396 17.3763 5.96183 17.7925 6.92069C18.2086 7.87955 18.4167 8.90599 18.4167 10C18.4167 10.1442 18.4132 10.2911 18.4063 10.4407C18.3993 10.5903 18.3862 10.7372 18.367 10.8814H17.0962C17.1239 10.7372 17.1426 10.5924 17.1523 10.4471C17.1619 10.3018 17.1667 10.1528 17.1667 10C17.1667 9.68696 17.1453 9.37767 17.1026 9.07211C17.0598 8.76655 16.9984 8.47221 16.9183 8.18909H13.8205C13.8729 8.49892 13.9108 8.80261 13.9343 9.10015C13.9578 9.39771 13.9695 9.69766 13.9695 10C13.9695 10.1528 13.9682 10.3005 13.9655 10.4431C13.9629 10.5857 13.9546 10.7319 13.9407 10.8814H12.6907C12.7046 10.7372 12.7129 10.5924 12.7156 10.4471C12.7182 10.3018 12.7196 10.1528 12.7196 10C12.7196 9.68696 12.7078 9.38435 12.6843 9.09215C12.6608 8.79994 12.6229 8.49892 12.5705 8.18909H8.4295C8.37715 8.49892 8.33922 8.79994 8.31571 9.09215C8.29221 9.38435 8.28046 9.68696 8.28046 10C8.28046 10.313 8.29221 10.6157 8.31571 10.9079C8.33922 11.2001 8.37715 11.5011 8.4295 11.8109H11.3814V13.0609H8.71635C8.90973 13.7575 9.15306 14.3993 9.44633 14.9864C9.7396 15.5735 10.0908 16.1277 10.5 16.649C10.6635 16.4322 10.8173 16.2105 10.9616 15.984C11.1058 15.7575 11.2458 15.5262 11.3814 15.2901V17.867C11.2372 17.8862 11.0924 17.8993 10.9471 17.9062C10.8018 17.9132 10.6528 17.9167 10.5 17.9167ZM17.125 17.516L14.4583 14.8493V17H13.2084V12.7084H17.5V13.9583H15.3285L17.9952 16.625L17.125 17.516Z"
              fill="#B5B5CB"/>
    </g>
</svg>
