<svg width="32" height="32" viewBox="0 0 32 32" fill="none" xmlns="http://www.w3.org/2000/svg">
    <mask id="mask0_1557_4102" style="mask-type:luminance" maskUnits="userSpaceOnUse" x="0" y="0" width="32"
          height="32">
        <path d="M32 0.196869H0V31.7046H32V0.196869Z" fill="white"/>
    </mask>
    <g mask="url(#mask0_1557_4102)">
        <path d="M27.9413 22.1986H15.1279L12.4158 16.4992L27.9413 22.1986Z" fill="#F9BF3D"/>
        <path d="M27.9413 22.1986L12.4158 16.4992L4.66223 0.196869L27.9413 22.1986Z" fill="#FCD13E"/>
        <path d="M10.968 16.8097L4.66223 0.196869L12.4158 16.4992L15.1279 22.1986L15.4738 28.6695L13.478 23.4253L10.968 16.8097Z"
              fill="#EEAA3D"/>
        <path d="M13.478 23.4253L15.4738 28.6695L12.4158 24.3204L12.4066 24.3084L13.478 23.4253Z" fill="#FCD13E"/>
        <path d="M10.9679 16.8097L13.478 23.4253L12.4066 24.3084L3.42859 31.7046L10.9679 16.8097Z" fill="#F9BF3D"/>
        <path d="M10.9679 16.8097L3.42859 31.7046L4.66218 0.196869L10.9679 16.8097Z" fill="#FCD13E"/>
    </g>
</svg>
